<?xml version="1.0" encoding="UTF-8" standalone="no"?>
<svg
   xmlns:dc="http://purl.org/dc/elements/1.1/"
   xmlns:cc="http://creativecommons.org/ns#"
   xmlns:rdf="http://www.w3.org/1999/02/22-rdf-syntax-ns#"
   xmlns:svg="http://www.w3.org/2000/svg"
   xmlns="http://www.w3.org/2000/svg"
   xmlns:sodipodi="http://sodipodi.sourceforge.net/DTD/sodipodi-0.dtd"
   xmlns:inkscape="http://www.inkscape.org/namespaces/inkscape"
   width="500px"
   height="500px"
   viewBox="0 0 500 500"
   version="1.1"
   id="SVGRoot"
   sodipodi:docname="favicon.svg"
   inkscape:version="1.0.2-2 (e86c870879, 2021-01-15)">
  <defs
     id="defs960">
    <inkscape:path-effect
       effect="simplify"
       id="path-effect1306"
       is_visible="true"
       lpeversion="1"
       steps="1"
       threshold="0.0040133779"
       smooth_angles="0"
       helper_size="0"
       simplify_individual_paths="false"
       simplify_just_coalesce="false"
       step="1" />
    <inkscape:path-effect
       effect="powerstroke"
       id="path-effect1308"
       is_visible="true"
       lpeversion="1"
       offset_points="0.42035124,2.6836475"
       sort_points="true"
       interpolator_type="CentripetalCatmullRom"
       interpolator_beta="0.75"
       start_linecap_type="round"
       linejoin_type="spiro"
       miter_limit="4"
       scale_width="1"
       end_linecap_type="round" />
    <inkscape:path-effect
       effect="simplify"
       id="path-effect1372"
       is_visible="true"
       lpeversion="1"
       steps="1"
       threshold="0.0040133779"
       smooth_angles="0"
       helper_size="0"
       simplify_individual_paths="false"
       simplify_just_coalesce="false"
       step="1" />
    <inkscape:path-effect
       effect="powerstroke"
       id="path-effect1374"
       is_visible="true"
       lpeversion="1"
       offset_points="0.43945983,2.6836475"
       sort_points="true"
       interpolator_type="CentripetalCatmullRom"
       interpolator_beta="0.75"
       start_linecap_type="round"
       linejoin_type="spiro"
       miter_limit="4"
       scale_width="1"
       end_linecap_type="round" />
  </defs>
  <sodipodi:namedview
     id="base"
     pagecolor="#ffffff"
     bordercolor="#666666"
     borderopacity="1.0"
     inkscape:pageopacity="0.0"
     inkscape:pageshadow="2"
     inkscape:zoom="0.70710678"
     inkscape:cx="268.70989"
     inkscape:cy="374.537"
     inkscape:document-units="px"
     inkscape:current-layer="layer1"
     inkscape:document-rotation="0"
     showgrid="false"
     inkscape:window-width="1267"
     inkscape:window-height="1040"
     inkscape:window-x="1972"
     inkscape:window-y="0"
     inkscape:window-maximized="0" />
  <metadata
     id="metadata963">
    <rdf:RDF>
      <cc:Work
         rdf:about="">
        <dc:format>image/svg+xml</dc:format>
        <dc:type
           rdf:resource="http://purl.org/dc/dcmitype/StillImage" />
        <dc:title></dc:title>
      </cc:Work>
    </rdf:RDF>
  </metadata>
  <g
     inkscape:label="Layer 1"
     inkscape:groupmode="layer"
     id="layer1">
    <path
       d="m 143.36643,46.324538 c 21.61844,9.728302 34.58948,21.618426 35.67038,24.861192 -1.0809,-5.404588 -4.32367,-31.346695 -7.56644,-47.560533 11.89016,8.64739 39.9941,28.103964 50.80331,34.589498 4.32367,-11.890157 17.29475,-50.8033027 17.29475,-50.8033027 0,0 24.86117,38.9131457 28.10393,44.3177687 4.32368,-4.32368 33.50856,-35.670411 39.99409,-44.3177687 1.08091,18.3756607 3.24277,44.3177687 4.32369,48.6414477 1.0809,-3.242767 11.89011,-18.375661 30.26578,-30.265787 -8.64737,16.213805 -11.89013,35.670379 -12.97108,55.126984 -18.37562,-4.323709 -35.67037,-8.647396 -57.2888,-8.647396 -37.83223,0 -73.50261,9.728307 -103.76841,28.103969 -5.40462,-19.456573 -14.05198,-39.99409 -24.8612,-54.046072 z M 431.97238,378.16732 414.67762,358.71075 c -4.32369,50.80329 -28.10393,91.87829 -74.58355,122.14407 l -7.56646,-28.10394 c -37.83223,28.10394 -103.76839,44.31777 -158.89538,12.97105 7.56645,-35.67039 12.97105,-72.4217 0,-115.65856 -30.2658,48.64145 -59.45067,68.09802 -59.45067,68.09802 C 93.644072,382.491 94.724991,312.23113 102.29143,291.69364 l -33.508552,12.97104 c 0,-24.86117 17.294751,-74.58355 42.155922,-102.68749 l -21.61843,-4.32368 c 14.05198,-29.18488 35.67041,-56.2079 64.85528,-76.74542 -8.6474,12.97108 -8.6474,44.31777 16.21382,56.2079 -9.72831,-18.37565 -11.89013,-38.91315 -1.08092,-51.88421 11.89013,-11.89013 28.10393,-7.56645 38.91314,1.08093 -4.32366,-9.72829 -12.97103,-22.69932 -28.10393,-22.69932 28.10393,-14.051989 59.45067,-22.699353 91.87828,-22.699353 5.40462,0 11.89013,0 19.45657,1.080911 9.72831,4.323688 24.86119,18.375662 30.26579,27.023022 0,0 0,-9.728301 -4.32367,-22.699334 35.67041,8.647353 52.96512,24.861194 60.53157,30.265784 1.08094,16.2138 5.40462,25.94211 11.89016,39.99409 -11.89016,-12.97108 -42.15594,-34.58947 -56.20791,-38.91318 0,0 -1.08094,12.97107 -5.40462,20.53751 -28.10393,-20.53751 -42.15591,-25.94211 -42.15591,-25.94211 -30.26579,4.32369 -51.88421,17.29475 -61.61252,27.02304 l 9.72831,8.64735 c -19.45658,5.40462 -30.26578,21.61842 -30.26578,21.61842 l 17.29472,3.24278 c 0,0 -1.08093,19.45657 22.69935,30.26579 20.5375,11.89013 51.88423,-3.24277 78.90725,8.64736 -19.45658,-21.6184 -30.2658,-30.26578 -30.2658,-30.26578 0,0 -7.56644,-1.08093 -12.97107,-1.08093 -5.40459,0 -16.2138,1.08093 -27.02301,-3.24277 -4.32368,-3.24277 -11.89013,-5.40459 -16.21381,-8.64736 0,0 12.97103,-12.97106 31.3467,-17.29476 0,0 17.29475,4.3237 30.26579,14.05199 9.7283,-8.64735 18.37565,-8.64735 18.37565,-8.64735 0,0 -9.72828,8.64735 -5.40458,19.45658 12.97103,11.89012 28.10393,29.18487 28.10393,29.18487 16.21381,-8.64739 47.56054,-5.40462 52.96513,1.08092 -8.64736,-11.89013 -20.53749,-20.5375 -29.18488,-28.10394 -1.08091,-4.32372 -11.89012,-18.37567 -12.97104,-20.53752 0,0 9.72831,4.32368 19.45657,11.89012 3.24278,-4.32368 7.56644,-7.56644 12.97109,-8.64735 7.56644,5.40459 8.64734,14.05197 7.56644,16.2138 -4.32372,4.3237 -5.40462,4.3237 -5.40462,4.3237 l 16.2138,17.29473 1.08095,-11.89011 c 35.67038,54.04602 56.20788,114.57759 30.26579,191.32301 z M 362.7934,264.67063 v -28.10396 c 0,0 -11.89012,-4.32369 -25.9421,-14.05199 -27.02303,4.32367 -57.28882,29.18487 -57.28882,29.18487 0,0 11.89013,20.53752 22.69935,42.15591 21.61842,3.24278 50.80331,-20.53747 60.53157,-29.18483 z m 25.94211,48.64144 c 0,0 -3.24277,-11.89017 -11.89014,-21.61843 H 356.3079 c 0,0 -28.10397,24.86117 -44.31776,24.86117 0,0 9.72826,17.29475 14.05197,27.02305 9.72827,-3.24276 25.94207,-9.7283 31.34669,-17.29474 0,0 4.32369,14.05198 4.32369,29.18487 10.80922,-5.40462 22.69935,-18.37566 27.02302,-42.15592 z m 8.64739,-88.63554 c -11.89016,8.64736 -19.4566,12.97104 -19.4566,12.97104 v 28.10396 c 7.56644,8.64736 14.05198,14.05198 20.53752,28.10393 10.80921,-19.45657 8.64736,-45.39868 -1.08092,-69.17893 z"
       fill="#360c3a"
       id="path4"
       sodipodi:nodetypes="ccccccccccsccccccccccccccccccscccccccccccccccscccccccccccccccccccccccccccccccccccc"
       style="stroke-width:10.8092" />
    <ellipse
       style="fill:none;fill-opacity:0;stroke:#170019;stroke-width:6.99356;stroke-miterlimit:4;stroke-dasharray:none;stroke-opacity:1"
       id="path427"
       cx="268.86563"
       cy="166.99274"
       rx="38.710419"
       ry="37.851654" />
    <ellipse
       style="fill:none;fill-opacity:0;stroke:#170019;stroke-width:3.94682;stroke-miterlimit:4;stroke-dasharray:none;stroke-opacity:1"
       id="path1278"
       cx="225.71257"
       cy="166.48044"
       rx="4.8080292"
       ry="4.3899398" />
    <path
       style="fill:#000000;stroke:none;stroke-width:10.8092px;stroke-linecap:butt;stroke-linejoin:miter;stroke-opacity:1"
       d="M 235.08735,180.44665 182.41624,336.74232"
       id="path1287" />
    <path
       style="fill:#000000;stroke:none;stroke-width:10.8092px;stroke-linecap:butt;stroke-linejoin:miter;stroke-opacity:1"
       d="M 239.09495,186.17176 146.34804,344.75748"
       id="path1296" />
    <path
       d="m 219.76541,164.17804 c -1.81263,0.0342 -4.4238,0.27659 -7.21617,1.33749 -1.89629,0.72044 -3.868,1.8142 -5.74236,3.45618 -1.51662,1.32859 -2.92845,2.98072 -4.1653,5.00198 -0.40236,0.65754 -0.78433,1.35111 -1.14389,2.08114 -0.55605,1.12899 -1.09653,2.42243 -1.58215,3.8971 -1.17341,3.56327 -1.97165,8.04474 -1.94788,13.24325 0.0186,4.07276 0.55305,8.49162 1.74335,12.58716 1.79784,7.24822 4.17464,14.39748 6.89974,22.18069 2.43309,6.9492 5.19957,14.55026 7.43478,21.89975 2.16661,7.1239 3.97912,14.44631 4.84108,21.90335 0.83803,7.25 0.78378,14.66195 -0.71621,22.27663 -1.42821,7.16581 -3.53753,14.20827 -5.93881,21.28048 -2.40126,7.07218 -5.07515,14.11872 -7.57199,21.19079 -2.5526,7.23001 -4.8898,14.40117 -6.6287,21.73147 -1.79642,7.57277 -2.90602,15.12291 -2.99856,22.8427 -1.8597,26.56238 1.82567,50.90739 3.62886,61.79262 a 2.6836475,2.6836475 90 0 0 5.29514,-0.87716 c -1.78925,-10.80105 -5.39113,-34.67519 -3.56442,-60.61741 0.004,-0.0529 0.006,-0.1058 0.006,-0.15878 0.0805,-7.26883 1.12305,-14.44258 2.85489,-21.74312 1.67404,-7.05692 3.93862,-14.02075 6.46746,-21.18345 2.46913,-6.99361 5.15091,-14.05904 7.59319,-21.25201 2.43842,-7.18162 4.62795,-14.46965 6.12141,-21.96289 1.62685,-8.25866 1.67287,-16.23835 0.78307,-23.93618 -0.91283,-7.89717 -2.82052,-15.55822 -5.03781,-22.84878 -2.27779,-7.48948 -5.10348,-15.25527 -7.50407,-22.11166 -2.7215,-7.77294 -5.03308,-14.7412 -6.76882,-21.75061 -0.009,-0.0361 -0.0186,-0.072 -0.0291,-0.10775 -1.04018,-3.55918 -1.52695,-7.49201 -1.54373,-11.16038 -0.0212,-4.64423 0.69363,-8.54876 1.67864,-11.53991 0.40683,-1.23541 0.85245,-2.2975 1.29913,-3.20441 0.28919,-0.58716 0.59246,-1.137 0.90708,-1.65115 0.96436,-1.57595 2.02936,-2.80739 3.12386,-3.7662 1.34911,-1.18185 2.75524,-1.96064 4.11188,-2.47606 2.01935,-0.76721 3.96418,-0.96119 5.41133,-0.98853 a 2.6836475,2.6836475 90 0 0 -0.1014,-5.36634 z"
       id="path-1"
       inkscape:path-effect="#path-effect1306;#path-effect1308"
       inkscape:original-d="m 219.81611,166.86121 c -4.84169,-0.36755 -8.64609,1.43449 -11.63677,4.42526 -17.81046,17.81035 1.21495,54.60491 7.44259,73.85397 4.01082,12.39718 6.55986,24.67156 6.29764,37.78573 -0.50802,25.40609 -14.0805,46.70369 -20.03791,70.99145 -6.93181,28.26036 -5.35056,59.85611 -0.57289,88.52462"
       style="fill:#170019;fill-opacity:1;fill-rule:nonzero;stroke:none;stroke-width:10.8092px;stroke-linecap:butt;stroke-linejoin:miter;stroke-opacity:1"
       sodipodi:nodetypes="cssssc" />
    <path
       style="fill:#000000;stroke:none;stroke-width:10.8092px;stroke-linecap:butt;stroke-linejoin:miter;stroke-opacity:1"
       d="m 239.66744,138.08081 -36.64076,61.83126"
       id="path1312" />
    <ellipse
       style="fill:#170019;fill-opacity:0.48996;stroke:none;stroke-width:10.2331;stroke-miterlimit:4;stroke-dasharray:none;stroke-opacity:1"
       id="ellipse1314"
       cx="268.86563"
       cy="166.99274"
       rx="38.710419"
       ry="37.851654" />
    <path
       d="m 217.0741,166.59382 c -1.19923,3.02618 -5.40117,13.6059 -7.50416,25.53369 -0.19631,1.11343 -0.39177,2.3319 -0.57103,3.63649 -0.98755,7.18695 -1.68905,18.22392 1.68054,30.34564 1.21683,7.09334 1.47902,14.38713 0.88288,22.09337 -0.55475,7.17126 -1.82816,14.42763 -3.59481,22.0368 -3.28615,14.15384 -8.27139,28.97799 -11.70766,44.25654 -0.012,0.0533 -0.0224,0.10706 -0.0311,0.16104 -3.18385,19.71581 -5.72905,39.6896 -6.4623,59.69157 -0.76209,20.7885 0.47149,40.67979 4.4278,59.90878 0.0275,0.26973 0.0667,0.5709 0.11234,0.88537 0.057,0.3924 0.12816,0.83208 0.20948,1.30048 0.16748,0.96466 0.38184,2.07291 0.61935,3.20455 0.2491,1.1869 0.52335,2.39844 0.80371,3.53659 0.29646,1.20352 0.59807,2.31951 0.89396,3.27744 0.15507,0.50203 0.31096,0.96825 0.46669,1.38591 0.15931,0.42726 0.33268,0.8424 0.52255,1.21003 0.0988,0.19131 0.21708,0.39909 0.35771,0.60301 0.13582,0.19696 0.34525,0.46803 0.64213,0.72042 0.1569,0.13338 0.36673,0.28603 0.63182,0.41679 0.27278,0.13455 0.6204,0.25361 1.03015,0.28951 0.42651,0.0374 0.85538,-0.0216 1.25637,-0.17314 0.3975,-0.15022 0.70705,-0.3679 0.93575,-0.57786 0.22882,-0.21007 0.39243,-0.42634 0.50673,-0.60383 0.11748,-0.18242 0.20385,-0.35661 0.2675,-0.50365 0.12758,-0.2947 0.20758,-0.58256 0.26114,-0.81664 0.11375,-0.49712 0.17615,-1.05916 0.21453,-1.60729 0.044,-0.62843 0.0631,-1.3451 0.0653,-2.10778 0.003,-0.88307 -0.0175,-1.84991 -0.0516,-2.84132 a 2.6836475,2.6836475 90 0 0 -5.36412,0.1843 c 0.0326,0.94884 0.0508,1.84543 0.0485,2.64159 -0.002,0.69424 -0.0195,1.28177 -0.0522,1.74829 -0.0307,0.43827 -0.0693,0.68391 -0.0924,0.78504 -0.007,0.0313 -0.01,0.009 0.0454,-0.11845 0.0249,-0.0574 0.0706,-0.15371 0.14556,-0.27011 0.0725,-0.11261 0.19256,-0.27554 0.37602,-0.44396 0.18407,-0.16899 0.44726,-0.35703 0.79667,-0.48908 0.35367,-0.13365 0.73356,-0.18585 1.10942,-0.15292 0.35986,0.0315 0.656,0.13535 0.87572,0.24372 0.21278,0.10496 0.36879,0.2212 0.47035,0.30754 0.18843,0.16019 0.28374,0.29833 0.29988,0.32174 0.024,0.0347 0.0205,0.035 -0.007,-0.019 -0.0551,-0.10663 -0.14399,-0.30496 -0.26226,-0.62216 -0.11067,-0.29681 -0.23378,-0.66171 -0.36754,-1.09476 -0.2548,-0.8249 -0.53018,-1.83844 -0.81068,-2.97716 -0.26393,-1.0715 -0.52455,-2.22219 -0.76237,-3.35532 -0.22705,-1.08183 -0.42907,-2.12775 -0.58401,-3.02019 -0.0752,-0.43321 -0.13797,-0.82251 -0.18614,-1.15409 -0.0482,-0.33192 -0.0782,-0.58162 -0.0928,-0.74785 -0.009,-0.10355 -0.0242,-0.20649 -0.0452,-0.30828 -3.87554,-18.76918 -5.1016,-38.26634 -4.34997,-58.76969 0.72086,-19.66386 3.2236,-39.36822 6.38416,-58.95135 3.35052,-14.87115 8.3245,-29.68186 11.68143,-44.14053 1.80676,-7.78197 3.13619,-15.31718 3.71789,-22.83673 0.62995,-8.14334 0.35281,-15.93049 -0.96847,-23.55576 -0.0155,-0.0896 -0.0356,-0.17846 -0.0602,-0.26607 -3.1354,-11.1869 -2.50864,-21.46048 -1.56876,-28.30049 0.16902,-1.23007 0.35361,-2.38108 0.53946,-3.43521 2.00066,-11.34737 6.01995,-21.48983 7.20818,-24.48824 a 2.6836475,2.6836475 90 0 0 -4.98978,-1.97738 z"
       id="path-1-5"
       inkscape:path-effect="#path-effect1372;#path-effect1374"
       inkscape:original-d="m 219.56899,167.58251 c -4.58009,13.45206 -10.37717,28.9795 -8.52715,43.77978 0.78581,6.28251 2.23037,12.57056 2.86258,18.89286 0.85178,8.52069 0.1967,17.87121 -0.57288,26.33555 -1.19462,13.14057 -6.50002,28.53656 -10.30529,41.22086 -6.79434,22.64788 -7.96994,47.06695 -10.30518,70.41885 -1.90176,19.01771 -0.0323,38.43595 2.86259,57.25121 1.02151,6.63998 2.18454,16.20483 4.61481,22.48272 1.07768,2.78436 1.64049,-4.37231 1.05929,-6.01586"
       style="fill:#170019;fill-opacity:1;fill-rule:nonzero;stroke:none;stroke-width:10.8092px;stroke-linecap:butt;stroke-linejoin:miter;stroke-opacity:1"
       sodipodi:nodetypes="csssssssc" />
  </g>
</svg>
